<mxfile host="Electron" modified="2023-12-24T22:31:53.904Z" agent="Mozilla/5.0 (X11; Linux x86_64) AppleWebKit/537.36 (KHTML, like Gecko) draw.io/22.0.3 Chrome/118.0.5993.54 Electron/27.0.0 Safari/537.36" etag="1ra4blLtZSFb1GRn-4Dn" version="22.0.3" type="device">
  <diagram name="Page-1" id="3itRTJbtA-ypbzbVe1KP">
    <mxGraphModel dx="989" dy="567" grid="1" gridSize="10" guides="1" tooltips="1" connect="1" arrows="1" fold="1" page="1" pageScale="1" pageWidth="827" pageHeight="1169" math="0" shadow="0">
      <root>
        <mxCell id="0" />
        <mxCell id="1" parent="0" />
        <mxCell id="wFTevgJieeF-5cVLoaM5-3" style="edgeStyle=orthogonalEdgeStyle;rounded=0;orthogonalLoop=1;jettySize=auto;html=1;entryX=0;entryY=0.5;entryDx=0;entryDy=0;" edge="1" parent="1" source="wFTevgJieeF-5cVLoaM5-1" target="wFTevgJieeF-5cVLoaM5-2">
          <mxGeometry relative="1" as="geometry">
            <Array as="points">
              <mxPoint x="140" y="150" />
            </Array>
          </mxGeometry>
        </mxCell>
        <mxCell id="wFTevgJieeF-5cVLoaM5-1" value="Your Project" style="rounded=1;whiteSpace=wrap;html=1;" vertex="1" parent="1">
          <mxGeometry x="80" y="40" width="120" height="60" as="geometry" />
        </mxCell>
        <mxCell id="wFTevgJieeF-5cVLoaM5-5" style="edgeStyle=orthogonalEdgeStyle;rounded=0;orthogonalLoop=1;jettySize=auto;html=1;entryX=0;entryY=0.5;entryDx=0;entryDy=0;exitX=0.5;exitY=1;exitDx=0;exitDy=0;" edge="1" parent="1" source="wFTevgJieeF-5cVLoaM5-2" target="wFTevgJieeF-5cVLoaM5-4">
          <mxGeometry relative="1" as="geometry" />
        </mxCell>
        <mxCell id="wFTevgJieeF-5cVLoaM5-7" style="edgeStyle=orthogonalEdgeStyle;rounded=0;orthogonalLoop=1;jettySize=auto;html=1;entryX=0;entryY=0.5;entryDx=0;entryDy=0;" edge="1" parent="1" source="wFTevgJieeF-5cVLoaM5-2" target="wFTevgJieeF-5cVLoaM5-6">
          <mxGeometry relative="1" as="geometry">
            <Array as="points">
              <mxPoint x="300" y="630" />
            </Array>
          </mxGeometry>
        </mxCell>
        <mxCell id="wFTevgJieeF-5cVLoaM5-2" value="docs" style="rounded=1;whiteSpace=wrap;html=1;" vertex="1" parent="1">
          <mxGeometry x="240" y="120" width="120" height="60" as="geometry" />
        </mxCell>
        <mxCell id="wFTevgJieeF-5cVLoaM5-42" style="edgeStyle=orthogonalEdgeStyle;rounded=0;orthogonalLoop=1;jettySize=auto;html=1;entryX=0;entryY=0.5;entryDx=0;entryDy=0;" edge="1" parent="1" source="wFTevgJieeF-5cVLoaM5-4" target="wFTevgJieeF-5cVLoaM5-37">
          <mxGeometry relative="1" as="geometry" />
        </mxCell>
        <mxCell id="wFTevgJieeF-5cVLoaM5-43" style="edgeStyle=orthogonalEdgeStyle;rounded=0;orthogonalLoop=1;jettySize=auto;html=1;entryX=0;entryY=0.5;entryDx=0;entryDy=0;" edge="1" parent="1" source="wFTevgJieeF-5cVLoaM5-4" target="wFTevgJieeF-5cVLoaM5-38">
          <mxGeometry relative="1" as="geometry" />
        </mxCell>
        <mxCell id="wFTevgJieeF-5cVLoaM5-44" style="edgeStyle=orthogonalEdgeStyle;rounded=0;orthogonalLoop=1;jettySize=auto;html=1;entryX=0;entryY=0.5;entryDx=0;entryDy=0;" edge="1" parent="1" source="wFTevgJieeF-5cVLoaM5-4" target="wFTevgJieeF-5cVLoaM5-39">
          <mxGeometry relative="1" as="geometry" />
        </mxCell>
        <mxCell id="wFTevgJieeF-5cVLoaM5-45" style="edgeStyle=orthogonalEdgeStyle;rounded=0;orthogonalLoop=1;jettySize=auto;html=1;entryX=0;entryY=0.5;entryDx=0;entryDy=0;" edge="1" parent="1" source="wFTevgJieeF-5cVLoaM5-4" target="wFTevgJieeF-5cVLoaM5-40">
          <mxGeometry relative="1" as="geometry" />
        </mxCell>
        <mxCell id="wFTevgJieeF-5cVLoaM5-46" style="edgeStyle=orthogonalEdgeStyle;rounded=0;orthogonalLoop=1;jettySize=auto;html=1;entryX=0;entryY=0.5;entryDx=0;entryDy=0;" edge="1" parent="1" source="wFTevgJieeF-5cVLoaM5-4" target="wFTevgJieeF-5cVLoaM5-41">
          <mxGeometry relative="1" as="geometry" />
        </mxCell>
        <mxCell id="wFTevgJieeF-5cVLoaM5-4" value="src" style="rounded=1;whiteSpace=wrap;html=1;" vertex="1" parent="1">
          <mxGeometry x="400" y="200" width="120" height="60" as="geometry" />
        </mxCell>
        <mxCell id="wFTevgJieeF-5cVLoaM5-10" style="edgeStyle=orthogonalEdgeStyle;rounded=0;orthogonalLoop=1;jettySize=auto;html=1;entryX=0;entryY=0.5;entryDx=0;entryDy=0;exitX=0.5;exitY=1;exitDx=0;exitDy=0;" edge="1" parent="1" source="wFTevgJieeF-5cVLoaM5-6" target="wFTevgJieeF-5cVLoaM5-8">
          <mxGeometry relative="1" as="geometry" />
        </mxCell>
        <mxCell id="wFTevgJieeF-5cVLoaM5-18" style="edgeStyle=orthogonalEdgeStyle;rounded=0;orthogonalLoop=1;jettySize=auto;html=1;entryX=0;entryY=0.5;entryDx=0;entryDy=0;exitX=0.5;exitY=1;exitDx=0;exitDy=0;" edge="1" parent="1" source="wFTevgJieeF-5cVLoaM5-6" target="wFTevgJieeF-5cVLoaM5-11">
          <mxGeometry relative="1" as="geometry" />
        </mxCell>
        <mxCell id="wFTevgJieeF-5cVLoaM5-19" style="edgeStyle=orthogonalEdgeStyle;rounded=0;orthogonalLoop=1;jettySize=auto;html=1;entryX=0;entryY=0.5;entryDx=0;entryDy=0;exitX=0.5;exitY=1;exitDx=0;exitDy=0;" edge="1" parent="1" source="wFTevgJieeF-5cVLoaM5-6" target="wFTevgJieeF-5cVLoaM5-13">
          <mxGeometry relative="1" as="geometry" />
        </mxCell>
        <mxCell id="wFTevgJieeF-5cVLoaM5-20" style="edgeStyle=orthogonalEdgeStyle;rounded=0;orthogonalLoop=1;jettySize=auto;html=1;entryX=0;entryY=0.5;entryDx=0;entryDy=0;exitX=0.5;exitY=1;exitDx=0;exitDy=0;" edge="1" parent="1" source="wFTevgJieeF-5cVLoaM5-6" target="wFTevgJieeF-5cVLoaM5-14">
          <mxGeometry relative="1" as="geometry" />
        </mxCell>
        <mxCell id="wFTevgJieeF-5cVLoaM5-21" style="edgeStyle=orthogonalEdgeStyle;rounded=0;orthogonalLoop=1;jettySize=auto;html=1;entryX=0;entryY=0.5;entryDx=0;entryDy=0;exitX=0.5;exitY=1;exitDx=0;exitDy=0;" edge="1" parent="1" source="wFTevgJieeF-5cVLoaM5-6" target="wFTevgJieeF-5cVLoaM5-15">
          <mxGeometry relative="1" as="geometry" />
        </mxCell>
        <mxCell id="wFTevgJieeF-5cVLoaM5-22" style="edgeStyle=orthogonalEdgeStyle;rounded=0;orthogonalLoop=1;jettySize=auto;html=1;entryX=0;entryY=0.5;entryDx=0;entryDy=0;exitX=0.5;exitY=1;exitDx=0;exitDy=0;" edge="1" parent="1" source="wFTevgJieeF-5cVLoaM5-6" target="wFTevgJieeF-5cVLoaM5-16">
          <mxGeometry relative="1" as="geometry" />
        </mxCell>
        <mxCell id="wFTevgJieeF-5cVLoaM5-23" style="edgeStyle=orthogonalEdgeStyle;rounded=0;orthogonalLoop=1;jettySize=auto;html=1;entryX=0;entryY=0.5;entryDx=0;entryDy=0;exitX=0.5;exitY=1;exitDx=0;exitDy=0;" edge="1" parent="1" source="wFTevgJieeF-5cVLoaM5-6" target="wFTevgJieeF-5cVLoaM5-17">
          <mxGeometry relative="1" as="geometry" />
        </mxCell>
        <mxCell id="wFTevgJieeF-5cVLoaM5-6" value="kartoza-mkdocs-base" style="rounded=1;whiteSpace=wrap;html=1;" vertex="1" parent="1">
          <mxGeometry x="400" y="600" width="120" height="60" as="geometry" />
        </mxCell>
        <mxCell id="wFTevgJieeF-5cVLoaM5-32" style="edgeStyle=orthogonalEdgeStyle;rounded=0;orthogonalLoop=1;jettySize=auto;html=1;entryX=0;entryY=0.5;entryDx=0;entryDy=0;" edge="1" parent="1" source="wFTevgJieeF-5cVLoaM5-8" target="wFTevgJieeF-5cVLoaM5-27">
          <mxGeometry relative="1" as="geometry" />
        </mxCell>
        <mxCell id="wFTevgJieeF-5cVLoaM5-33" style="edgeStyle=orthogonalEdgeStyle;rounded=0;orthogonalLoop=1;jettySize=auto;html=1;entryX=0;entryY=0.5;entryDx=0;entryDy=0;" edge="1" parent="1" source="wFTevgJieeF-5cVLoaM5-8" target="wFTevgJieeF-5cVLoaM5-28">
          <mxGeometry relative="1" as="geometry" />
        </mxCell>
        <mxCell id="wFTevgJieeF-5cVLoaM5-34" style="edgeStyle=orthogonalEdgeStyle;rounded=0;orthogonalLoop=1;jettySize=auto;html=1;entryX=0;entryY=0.5;entryDx=0;entryDy=0;" edge="1" parent="1" source="wFTevgJieeF-5cVLoaM5-8" target="wFTevgJieeF-5cVLoaM5-29">
          <mxGeometry relative="1" as="geometry" />
        </mxCell>
        <mxCell id="wFTevgJieeF-5cVLoaM5-35" style="edgeStyle=orthogonalEdgeStyle;rounded=0;orthogonalLoop=1;jettySize=auto;html=1;entryX=0;entryY=0.5;entryDx=0;entryDy=0;" edge="1" parent="1" source="wFTevgJieeF-5cVLoaM5-8" target="wFTevgJieeF-5cVLoaM5-30">
          <mxGeometry relative="1" as="geometry" />
        </mxCell>
        <mxCell id="wFTevgJieeF-5cVLoaM5-36" style="edgeStyle=orthogonalEdgeStyle;rounded=0;orthogonalLoop=1;jettySize=auto;html=1;entryX=0;entryY=0.5;entryDx=0;entryDy=0;" edge="1" parent="1" source="wFTevgJieeF-5cVLoaM5-8" target="wFTevgJieeF-5cVLoaM5-31">
          <mxGeometry relative="1" as="geometry" />
        </mxCell>
        <mxCell id="wFTevgJieeF-5cVLoaM5-8" value="src" style="rounded=1;whiteSpace=wrap;html=1;" vertex="1" parent="1">
          <mxGeometry x="560" y="1000" width="120" height="60" as="geometry" />
        </mxCell>
        <mxCell id="wFTevgJieeF-5cVLoaM5-11" value="assets" style="rounded=1;whiteSpace=wrap;html=1;" vertex="1" parent="1">
          <mxGeometry x="560" y="680" width="120" height="60" as="geometry" />
        </mxCell>
        <mxCell id="wFTevgJieeF-5cVLoaM5-13" value="css" style="rounded=1;whiteSpace=wrap;html=1;" vertex="1" parent="1">
          <mxGeometry x="560" y="760" width="120" height="60" as="geometry" />
        </mxCell>
        <mxCell id="wFTevgJieeF-5cVLoaM5-14" value="js" style="rounded=1;whiteSpace=wrap;html=1;" vertex="1" parent="1">
          <mxGeometry x="560" y="840" width="120" height="60" as="geometry" />
        </mxCell>
        <mxCell id="wFTevgJieeF-5cVLoaM5-15" value="pdfs" style="rounded=1;whiteSpace=wrap;html=1;" vertex="1" parent="1">
          <mxGeometry x="560" y="920" width="120" height="60" as="geometry" />
        </mxCell>
        <mxCell id="wFTevgJieeF-5cVLoaM5-16" value="stylesheets" style="rounded=1;whiteSpace=wrap;html=1;" vertex="1" parent="1">
          <mxGeometry x="560" y="1080" width="120" height="60" as="geometry" />
        </mxCell>
        <mxCell id="wFTevgJieeF-5cVLoaM5-17" value="templates" style="rounded=1;whiteSpace=wrap;html=1;" vertex="1" parent="1">
          <mxGeometry x="560" y="1160" width="120" height="60" as="geometry" />
        </mxCell>
        <mxCell id="wFTevgJieeF-5cVLoaM5-24" value="" style="verticalLabelPosition=bottom;html=1;verticalAlign=top;align=center;strokeColor=none;fillColor=#00BEF2;shape=mxgraph.azure.github_code;pointerEvents=1;" vertex="1" parent="1">
          <mxGeometry x="560" y="605" width="50" height="50" as="geometry" />
        </mxCell>
        <mxCell id="wFTevgJieeF-5cVLoaM5-25" value="Git Submodule" style="text;html=1;strokeColor=none;fillColor=none;align=center;verticalAlign=middle;whiteSpace=wrap;rounded=0;" vertex="1" parent="1">
          <mxGeometry x="600" y="615" width="120" height="30" as="geometry" />
        </mxCell>
        <mxCell id="wFTevgJieeF-5cVLoaM5-26" value="Step 1: Initialise" style="rounded=1;whiteSpace=wrap;html=1;" vertex="1" parent="1">
          <mxGeometry x="130" y="710" width="240" height="60" as="geometry" />
        </mxCell>
        <mxCell id="wFTevgJieeF-5cVLoaM5-27" value="about" style="rounded=1;whiteSpace=wrap;html=1;" vertex="1" parent="1">
          <mxGeometry x="760" y="1000" width="120" height="60" as="geometry" />
        </mxCell>
        <mxCell id="wFTevgJieeF-5cVLoaM5-28" value="administrator" style="rounded=1;whiteSpace=wrap;html=1;" vertex="1" parent="1">
          <mxGeometry x="760" y="1080" width="120" height="60" as="geometry" />
        </mxCell>
        <mxCell id="wFTevgJieeF-5cVLoaM5-29" value="developer" style="rounded=1;whiteSpace=wrap;html=1;" vertex="1" parent="1">
          <mxGeometry x="760" y="1160" width="120" height="60" as="geometry" />
        </mxCell>
        <mxCell id="wFTevgJieeF-5cVLoaM5-30" value="devops" style="rounded=1;whiteSpace=wrap;html=1;" vertex="1" parent="1">
          <mxGeometry x="760" y="1240" width="120" height="60" as="geometry" />
        </mxCell>
        <mxCell id="wFTevgJieeF-5cVLoaM5-31" value="user" style="rounded=1;whiteSpace=wrap;html=1;" vertex="1" parent="1">
          <mxGeometry x="760" y="1320" width="120" height="60" as="geometry" />
        </mxCell>
        <mxCell id="wFTevgJieeF-5cVLoaM5-37" value="about" style="rounded=1;whiteSpace=wrap;html=1;" vertex="1" parent="1">
          <mxGeometry x="600" y="200" width="120" height="60" as="geometry" />
        </mxCell>
        <mxCell id="wFTevgJieeF-5cVLoaM5-38" value="administrator" style="rounded=1;whiteSpace=wrap;html=1;" vertex="1" parent="1">
          <mxGeometry x="600" y="280" width="120" height="60" as="geometry" />
        </mxCell>
        <mxCell id="wFTevgJieeF-5cVLoaM5-39" value="developer" style="rounded=1;whiteSpace=wrap;html=1;" vertex="1" parent="1">
          <mxGeometry x="600" y="360" width="120" height="60" as="geometry" />
        </mxCell>
        <mxCell id="wFTevgJieeF-5cVLoaM5-40" value="devops" style="rounded=1;whiteSpace=wrap;html=1;" vertex="1" parent="1">
          <mxGeometry x="600" y="440" width="120" height="60" as="geometry" />
        </mxCell>
        <mxCell id="wFTevgJieeF-5cVLoaM5-41" value="user" style="rounded=1;whiteSpace=wrap;html=1;" vertex="1" parent="1">
          <mxGeometry x="600" y="520" width="120" height="60" as="geometry" />
        </mxCell>
        <mxCell id="wFTevgJieeF-5cVLoaM5-47" value="Step 1: Build" style="rounded=1;whiteSpace=wrap;html=1;" vertex="1" parent="1">
          <mxGeometry x="130" y="800" width="240" height="60" as="geometry" />
        </mxCell>
      </root>
    </mxGraphModel>
  </diagram>
</mxfile>
